<svg width="31" height="31" viewBox="0 0 31 31" fill="none" xmlns="http://www.w3.org/2000/svg">
<path fill-rule="evenodd" clip-rule="evenodd" d="M0.591925 20.6154C-0.197311 17.2508 -0.197309 13.7492 0.591925 10.3846C1.73168 5.5256 5.5256 1.73169 10.3846 0.591927C13.7492 -0.197309 17.2508 -0.197309 20.6154 0.591928C25.4744 1.73169 29.2683 5.52561 30.4081 10.3846C31.1973 13.7492 31.1973 17.2508 30.4081 20.6154C29.2683 25.4744 25.4744 29.2683 20.6154 30.4081C17.2508 31.1973 13.7492 31.1973 10.3846 30.4081C5.5256 29.2683 1.73168 25.4744 0.591925 20.6154ZM14.5508 10.6788C14.1645 10.2925 13.5382 10.2925 13.1519 10.6788L9.03022 14.8005C8.84471 14.986 8.74049 15.2376 8.74049 15.5C8.74049 15.7623 8.84471 16.0139 9.03022 16.1994L13.1519 20.3211C13.5382 20.7074 14.1645 20.7074 14.5508 20.3211C14.9371 19.9348 14.9371 19.3084 14.5508 18.9221L12.1178 16.4891L21.2703 16.4891C21.8166 16.4891 22.2595 16.0463 22.2595 15.5C22.2595 14.9536 21.8166 14.5108 21.2703 14.5108L12.1178 14.5108L14.5508 12.0778C14.9371 11.6915 14.9371 11.0651 14.5508 10.6788Z" fill="#0FAAA5"/>
</svg>
