<svg width="32" height="31" viewBox="0 0 32 31" fill="none" xmlns="http://www.w3.org/2000/svg">
<path fill-rule="evenodd" clip-rule="evenodd" d="M30.6024 20.6154C31.3916 17.2508 31.3916 13.7492 30.6024 10.3846C29.4627 5.5256 25.6687 1.73169 20.8098 0.591927C17.4451 -0.197309 13.9435 -0.197309 10.5789 0.591928C5.71993 1.73169 1.92602 5.52561 0.786261 10.3846C-0.00297219 13.7492 -0.00297174 17.2508 0.786259 20.6154C1.92602 25.4744 5.71994 29.2683 10.5789 30.4081C13.9435 31.1973 17.4451 31.1973 20.8098 30.4081C25.6687 29.2683 29.4627 25.4744 30.6024 20.6154ZM16.6435 10.6788C17.0298 10.2925 17.6562 10.2925 18.0425 10.6788L22.1641 14.8005C22.3496 14.986 22.4538 15.2376 22.4538 15.5C22.4538 15.7623 22.3496 16.0139 22.1641 16.1994L18.0425 20.3211C17.6562 20.7074 17.0298 20.7074 16.6435 20.3211C16.2572 19.9348 16.2572 19.3084 16.6435 18.9221L19.0765 16.4891L9.92403 16.4891C9.37772 16.4891 8.93484 16.0463 8.93484 15.5C8.93484 14.9536 9.37772 14.5108 9.92403 14.5108L19.0765 14.5108L16.6435 12.0778C16.2572 11.6915 16.2572 11.0651 16.6435 10.6788Z" fill="#9EA3AE"/>
</svg>
