<svg width="100" height="100" viewBox="0 0 100 100" fill="none" xmlns="http://www.w3.org/2000/svg">
<circle cx="50" cy="50" r="50" fill="#0FAAA5"/>
<path d="M32.5632 37.8705C35.5086 34.6384 39.9655 33 45.8079 33H47.9073V38.9904L46.2194 39.3325C43.3433 39.9148 41.3426 41.0601 40.272 42.741C39.7133 43.6465 39.3965 44.6833 39.3525 45.75H45.8079C46.3647 45.75 46.8987 45.9739 47.2924 46.3724C47.6861 46.7709 47.9073 47.3114 47.9073 47.875V62.75C47.9073 65.0939 46.0242 67 43.7086 67H31.1125C30.5558 67 30.0218 66.7761 29.6281 66.3776C29.2344 65.9791 29.0132 65.4386 29.0132 64.875V54.25L29.0195 48.0471C29.0006 47.8113 28.6017 42.2225 32.5632 37.8705ZM66.8013 67H54.2053C53.6485 67 53.1145 66.7761 52.7208 66.3776C52.3271 65.9791 52.1059 65.4386 52.1059 64.875V54.25L52.1122 48.0471C52.0933 47.8113 51.6945 42.2225 55.6559 37.8705C58.6013 34.6384 63.0582 33 68.9007 33H71V38.9904L69.3121 39.3325C66.436 39.9148 64.4354 41.0601 63.3647 42.741C62.8061 43.6465 62.4892 44.6833 62.4452 45.75H68.9007C69.4574 45.75 69.9914 45.9739 70.3851 46.3724C70.7788 46.7709 71 47.3114 71 47.875V62.75C71 65.0939 69.1169 67 66.8013 67Z" fill="white"/>
</svg>
